#N canvas 1426 93 1066 752 12;
#X obj 352 627 netsend -u -b;
#X msg 505 567 connect 127.0.0.1 8001;
#X obj 352 121 oscformat -f f /play;
#X obj 524 119 oscformat -f f /stop;
#X msg 353 77 1;
#X msg 523 79 1;
#X msg 507 604 disconnect;
#X obj 523 520 oscformat -f f master volume;
#X obj 525 481 nbx 5 17 -1e+37 1e+37 0 0 empty empty empty 0 -10 0 12 #fcfcfc #000000 #000000 0 256;
#X obj 534 182 vsl 19 162 0 1 0 0 empty empty empty 0 -9 0 12 #fcfcfc #000000 #000000 0 1;
#X obj 47 132 comport;
#X obj 47 165 pdchoco/slip_parse;
#X obj 42 196 oscparse;
#X obj 40 230 list trim;
#X obj 45 273 route bouton angle;
#X msg 31 55 devices;
#X floatatom 138 309 5 0 0 0 - - - 0;
#X obj 49 315 tgl 19 0 empty empty empty 0 -10 0 12 #fcfcfc #000000 #000000 0 1;
#X obj 717 16 select 0 1;
#X obj 349 4 tgl 19 0 empty empty empty 0 -10 0 12 #fcfcfc #000000 #000000 0 1;
#X obj 37 433 change, f 7;
#X obj 104 442 pdchoco/stream_flip_flop;
#X obj 116 479 change, f 7;
#X obj 113 510 tgl 19 0 empty empty empty 0 -10 0 12 #fcfcfc #000000 #000000 0 1;
#X obj 137 334 / 4095;
#X floatatom 136 360 5 0 0 0 - - - 0;
#X text 108 422 mode flip flop;
#X obj 128 387 pdchoco/stream_smooth 0.01 0.01;
#X obj 729 107 oscformat -f i vkb_midi 0 note 60;
#X msg 728 51 127;
#X msg 782 50 0;
#X obj 360 42 select 0 1;
#X obj 560 23 tgl 19 0 empty empty empty 0 -10 0 12 #fcfcfc #000000 #000000 0 1;
#X msg 126 63 baud 115200 \, open 4;
#X obj 622 422 oscformat -f i vkb_midi 0 cc 14;
#X floatatom 628 384 5 0 0 0 - - - 0;
#X obj 631 357 / 4095;
#X floatatom 635 325 5 0 0 0 - - - 0;
#X connect 1 0 0 0;
#X connect 2 0 0 0;
#X connect 3 0 0 0;
#X connect 4 0 2 0;
#X connect 5 0 3 0;
#X connect 6 0 0 0;
#X connect 7 0 0 0;
#X connect 8 0 7 0;
#X connect 9 0 8 0;
#X connect 10 0 11 0;
#X connect 11 0 12 0;
#X connect 12 0 13 0;
#X connect 13 0 14 0;
#X connect 14 0 17 0;
#X connect 14 1 16 0;
#X connect 15 0 10 0;
#X connect 16 0 24 0;
#X connect 16 0 37 0;
#X connect 17 0 20 0;
#X connect 17 0 21 0;
#X connect 19 0 31 0;
#X connect 20 0 19 0;
#X connect 21 0 22 0;
#X connect 22 0 23 0;
#X connect 24 0 25 0;
#X connect 25 0 27 0;
#X connect 27 0 9 0;
#X connect 28 0 0 0;
#X connect 29 0 28 0;
#X connect 30 0 28 0;
#X connect 31 0 4 0;
#X connect 31 1 5 0;
#X connect 33 0 10 0;
#X connect 34 0 0 0;
#X connect 35 0 34 0;
#X connect 36 0 35 0;
#X connect 37 0 36 0;
